<svg width="18" height="17" viewBox="0 0 18 17" fill="none" xmlns="http://www.w3.org/2000/svg">
<path d="M9.05103 0.823364C9.13793 0.823364 9.23308 0.845758 9.34106 0.907349C9.41292 0.948375 9.47082 1.0097 9.51489 1.11536L9.51587 1.11731L11.3909 5.5675L11.5081 5.84485L11.8079 5.87122L16.636 6.29407C16.8008 6.31835 16.8825 6.36489 16.9221 6.39954C16.9857 6.45521 17.0405 6.53236 17.0813 6.64465C17.1154 6.7387 17.1224 6.83037 17.1008 6.93079C17.0849 7.00488 17.0434 7.08579 16.9436 7.17493L13.2747 10.3448L13.0461 10.5421L13.1145 10.837L14.2141 15.5616C14.2424 15.6846 14.2274 15.7626 14.1995 15.8214C14.149 15.9276 14.0818 16.0114 13.9954 16.0782C13.926 16.1318 13.8435 16.1653 13.7336 16.1749C13.653 16.1819 13.5696 16.1657 13.4709 16.1027L13.2014 16.5236L13.4709 16.1017L13.4592 16.0948L9.30981 13.5948L9.05103 13.4396L8.79321 13.5948L4.6438 16.0948H4.64282L4.63306 16.1017C4.53381 16.1648 4.44934 16.1818 4.36743 16.1749C4.25862 16.1658 4.17759 16.1319 4.10864 16.0782C4.02128 16.0103 3.95305 15.9271 3.90259 15.8214C3.87513 15.7639 3.85922 15.6845 3.88794 15.5597L4.98853 10.837L5.05688 10.5421L4.82837 10.3448L1.15356 7.17004C1.05883 7.08267 1.01892 7.00295 1.00317 6.92981C0.981439 6.8286 0.988091 6.73694 1.02173 6.64368C1.06165 6.53319 1.11621 6.45618 1.18091 6.39954C1.22128 6.36422 1.30254 6.31769 1.46509 6.29407L6.29517 5.87122L6.59497 5.84485L6.71216 5.5675L8.58716 1.11731L8.58813 1.11536C8.63224 1.00968 8.69006 0.94836 8.76196 0.907349C8.86979 0.845864 8.96423 0.823422 9.05103 0.823364Z" stroke="black"/>
</svg>
