<svg width="25" height="25" viewBox="0 0 25 25" fill="none" xmlns="http://www.w3.org/2000/svg">
<path d="M10.978 21.7334C11.9834 21.9005 13.0094 21.9012 14.015 21.7354M10.978 21.7334C8.81845 21.373 6.85578 20.2581 5.44091 18.5873C4.02604 16.9164 3.24971 14.7979 3.25 12.6084C3.25036 10.8438 3.75548 9.11609 4.70575 7.62917C5.65602 6.14225 7.01179 4.95817 8.61307 4.21665C10.2143 3.47514 11.9943 3.20713 13.743 3.44425C15.4916 3.68137 17.1359 4.41373 18.4819 5.5549C19.8279 6.69608 20.8193 8.19845 21.3393 9.88475C21.8593 11.571 21.8861 13.3709 21.4165 15.0719C20.9469 16.7729 20.0005 18.3041 18.6891 19.4848C17.3776 20.6655 15.7558 21.4464 14.015 21.7354M10.978 21.7334L10.977 16.7284H9.08C8.92087 16.7284 8.76826 16.6652 8.65574 16.5527C8.54321 16.4402 8.48 16.2876 8.48 16.1284V14.2904C8.48 14.1313 8.54321 13.9787 8.65574 13.8662C8.76826 13.7537 8.92087 13.6904 9.08 13.6904H10.977V10.5584C10.977 9.7628 11.2931 8.99974 11.8557 8.43713C12.4183 7.87452 13.1814 7.55845 13.977 7.55845H15.787C16.0522 7.55845 16.3066 7.6638 16.4941 7.85134C16.6816 8.03888 16.787 8.29323 16.787 8.55845V9.59845C16.787 9.86366 16.6816 10.118 16.4941 10.3056C16.3066 10.4931 16.0522 10.5984 15.787 10.5984H15.015C14.7498 10.5984 14.4954 10.7038 14.3079 10.8913C14.1204 11.0789 14.015 11.3332 14.015 11.5984V13.6904H16.312C16.3991 13.6904 16.4851 13.7094 16.5642 13.746C16.6432 13.7826 16.7133 13.8359 16.7696 13.9024C16.826 13.9688 16.8672 14.0467 16.8904 14.1306C16.9136 14.2145 16.9182 14.3025 16.904 14.3884L16.654 15.8924C16.6152 16.1259 16.4948 16.3381 16.3142 16.4912C16.1337 16.6443 15.9047 16.7283 15.668 16.7284H14.015V21.7354" stroke="white" stroke-width="1.5" stroke-linecap="round"/>
</svg>
