<svg width="221" height="247" viewBox="0 0 221 247" fill="none" xmlns="http://www.w3.org/2000/svg">
<g clip-path="url(#clip0_152_149)">
<path d="M102.125 21.0625C107.766 25.4232 107.766 25.4232 110 28C110 28.66 110 29.32 110 30C110.66 30 111.32 30 112 30C113.348 31.5355 114.627 33.1319 115.875 34.75C117.137 36.2851 118.398 37.8201 119.664 39.352C120.557 40.4534 121.432 41.5693 122.289 42.6987C127.558 49.7116 127.558 49.7116 135.184 53.4717C140.061 53.8383 144.885 53.4175 149.752 53.0732C158.26 52.796 167.222 55.913 174 61C177.536 64.3269 180.067 67.1548 181 72C182.093 72.0412 183.186 72.0825 184.312 72.125C192.963 73.2447 200.029 78.2612 205.562 84.7773C209.141 90.3104 210.539 95.3974 210.438 101.937C210.428 102.643 210.418 103.348 210.408 104.074C210.124 112.394 207.768 116.524 201.938 122.25C193.304 129.419 183.943 130.652 173 131C166.402 149.928 166.402 149.928 165.587 169.716C167.345 188.655 159.306 205.945 147.977 220.621C143.824 225.568 139.256 229.582 134.063 233.375C133.514 233.78 132.965 234.185 132.4 234.602C127.612 237.946 122.464 239.993 117 242C116.715 237.46 116.478 232.918 116.25 228.375C116.128 226.447 116.128 226.447 116.004 224.48C115.506 213.813 115.506 213.813 117.699 210.293C119.896 208.103 121.886 206.491 124.563 204.937C128.277 202.776 130.14 200.913 132 197C134.567 185.191 132.218 172.668 126.453 162.129C123.569 157.904 120.208 154.939 115.5 152.937C110.686 153.058 107.136 155.135 103.375 158C95.1672 168.368 92.917 181.087 94 194C95.1026 198.628 97.3042 202.003 101 205C101.648 205.342 102.297 205.683 102.965 206.035C103.678 206.415 104.391 206.796 105.125 207.187C106.15 207.673 106.15 207.673 107.195 208.168C110.71 211.736 110.939 216.783 111.072 221.62C111.011 224.338 110.867 227.037 110.688 229.75C110.639 230.669 110.591 231.588 110.541 232.535C110.298 236.79 109.902 240.827 109 245C96.4736 248.286 82.5264 248.286 70 245C69.0336 238.424 68.7513 231.955 68.6875 225.312C68.6585 224.293 68.6295 223.274 68.5996 222.225C68.5364 214.792 68.5364 214.792 70.793 210.937C73.9281 208.185 77.6539 205 82 205C88.5097 189.811 84.4361 170.965 83 155C82.34 155 81.68 155 81 155C81 166.22 81 177.44 81 189C79.02 189 77.04 189 75 189C74.6587 184.917 74.3285 180.834 74 176.75C73.8569 175.041 73.8569 175.041 73.7109 173.297C73.1183 165.846 72.8773 158.473 73 151C72.01 151 71.02 151 70 151C70 163.87 70 176.74 70 190C67.69 190 65.38 190 63 190C63 177.13 63 164.26 63 151C62.01 151 61.02 151 60 151C60.0232 151.648 60.0464 152.297 60.0703 152.965C60.2922 165.023 59.0549 176.999 58 189C56.02 189 54.04 189 52 189C52 177.78 52 166.56 52 155C51.34 155 50.68 155 50 155C49.5652 158.928 49.1383 162.856 48.7183 166.786C48.505 168.766 48.2858 170.745 48.0664 172.725C46.0466 188.257 46.0466 188.257 50 203C52.4052 205.342 54.7205 206.84 57.625 208.5C60.2433 210.154 61.4976 211.296 63 214C64.193 219.888 63.9366 225.465 63.5625 231.437C63.4842 232.821 63.4842 232.821 63.4043 234.232C63.2757 236.489 63.1408 238.744 63 241C62.34 241.33 61.68 241.66 61 242C40.3943 233.603 26.5222 217.152 18 197C11.3925 178.222 12.5564 158.062 20.543 139.941C22.6116 135.765 24.9752 131.792 27.3711 127.797C29.1561 124.732 30.6777 121.683 31.9922 118.391C33 116 33 116 34.6328 113.047C36.3658 109.581 37.4957 106.852 38 103C36.481 99.0627 34.4752 95.8771 32.1563 92.3789C24.9559 81.5079 25.3824 65.1956 27.6914 52.7305C29.5662 44.9881 32.3213 38.4465 37 32C37.4396 31.3671 37.8791 30.7341 38.332 30.082C53.0599 10.8551 82.9254 7.36289 102.125 21.0625ZM54.8477 37.7031C44.4874 50.5822 41.7452 66.929 43 83C43.7549 87.091 44.739 91.0369 46 95C47.98 94.505 47.98 94.505 50 94C49.9768 93.1518 49.9536 92.3036 49.9297 91.4297C49.6628 74.0813 52.581 58.2853 61 43C60.7834 44.0158 60.5669 45.0316 60.3438 46.0781C57.4522 60.1279 55.3342 77.9348 63 91C64.98 90.505 64.98 90.505 67 90C67.1608 89.4057 67.3216 88.8115 67.4873 88.1992C68.2329 85.4637 68.9913 82.7319 69.75 80C70.0027 79.0654 70.2553 78.1309 70.5156 77.168C72.1353 71.3775 74.1318 66.2875 77 61C76.9768 62.195 76.9536 63.3899 76.9297 64.6211C76.7542 76.4403 76.7542 76.4403 79 88C80.32 88.33 81.64 88.66 83 89C84.65 83.72 86.3 78.44 88 73C88.4125 74.155 88.825 75.31 89.25 76.5C90.3888 79.4906 91.5603 82.457 92.875 85.375C93.1612 86.0221 93.4474 86.6692 93.7422 87.3359C97.1942 91.9029 105.029 92.1398 110.313 93.25C123.072 96.0398 134.278 100.139 146 106C140.06 105.67 134.12 105.34 128 105C130.84 107.84 133.403 110.173 136.563 112.562C140.815 115.782 140.815 115.782 142.422 117.672C144.727 119.612 146.723 119.513 149.688 119.687C150.681 119.753 151.675 119.819 152.699 119.887C153.458 119.924 154.218 119.961 155 120C155.041 119.381 155.082 118.762 155.125 118.125C156 116 156 116 158.434 114.75C163.044 113.78 167.37 113.863 172.062 114C179.826 114.475 179.826 114.475 187 112C189.306 109.729 189.937 108.408 190.434 105.195C190.442 98.9777 190.422 94.7806 186 90C182.316 86.316 178.203 84.7196 173.402 82.9297C171.186 82.0721 169.105 81.0986 167 80C167.103 79.175 167.206 78.35 167.312 77.5C166.799 71.7519 163.766 67.766 159.75 63.75C152.185 58.9357 144.857 57.1389 136 56C140.188 61.1799 144.727 65.5882 149.73 69.9844C151.557 71.6064 153.285 73.2645 155 75C147.891 72.8417 141.506 69.9567 134.938 66.5C133.428 65.7065 133.428 65.7065 131.888 64.897C119.595 58.3195 108.802 50.9332 98.6524 41.3633C85.2741 29.4431 69.3141 23.8011 54.8477 37.7031ZM152 127C153 129 153 129 153 129L152 127Z" fill="#E97627"/>
<path d="M102.125 21.0625C107.766 25.4232 107.766 25.4232 110 28C110 28.66 110 29.32 110 30C110.66 30 111.32 30 112 30C113.348 31.5355 114.627 33.1319 115.875 34.75C117.137 36.2851 118.398 37.8201 119.664 39.352C120.557 40.4534 121.432 41.5693 122.289 42.6987C127.558 49.7116 127.558 49.7116 135.184 53.4717C140.061 53.8383 144.885 53.4175 149.752 53.0732C158.26 52.796 167.222 55.913 174 61C177.536 64.3269 180.067 67.1548 181 72C182.093 72.0412 183.186 72.0825 184.313 72.125C192.963 73.2447 200.029 78.2612 205.563 84.7773C209.141 90.3104 210.539 95.3974 210.438 101.937C210.428 102.643 210.418 103.348 210.408 104.074C210.124 112.394 207.768 116.524 201.938 122.25C193.304 129.419 183.943 130.652 173 131C171.425 135.477 169.997 139.936 168.828 144.535C168.62 145.34 168.411 146.144 168.196 146.973C167.777 148.605 167.37 150.24 166.978 151.878C165.504 157.551 165.504 157.551 163.277 159.535C158.563 160.497 155.327 160.865 151.184 158.164C150.277 157.326 149.371 156.488 148.438 155.625C147.393 154.698 146.345 153.775 145.293 152.855C144.753 152.38 144.214 151.905 143.658 151.416C131.776 141.27 117.933 133.889 104 127C118.808 122.778 138.859 135.098 152 141C148.447 137.188 144.963 134.549 140.438 131.875C136.818 129.724 133.31 127.606 130 125C138.026 125.406 145.327 126.598 153 129C153 128.34 153 127.68 153 127C152.443 126.752 151.886 126.505 151.313 126.25C147.766 124.333 144.843 121.843 142 119C143.417 118.973 144.833 118.953 146.25 118.937C147.039 118.926 147.828 118.914 148.641 118.902C150.907 118.996 152.829 119.368 155 120C155.041 119.402 155.083 118.804 155.125 118.187C156 116 156 116 158.426 114.367C163.118 112.572 167.098 112.745 172.063 112.937C179.815 113.448 179.815 113.448 187 111C190.121 106.319 189.581 101.48 189 96C185.6 88.6768 179.16 85.901 172.051 82.9297C170 82 170 82 167 80C166.509 78.0339 166.021 76.0665 165.574 74.0898C163.958 68.2059 160.278 65.0267 155.211 62.0976C149.295 59.1608 143.532 57.8551 137 57C137.505 57.469 138.009 57.9379 138.529 58.4211C140.814 60.5485 143.094 62.6804 145.375 64.8125C146.169 65.5505 146.963 66.2885 147.781 67.0488C148.542 67.761 149.302 68.4732 150.086 69.207C151.139 70.1889 151.139 70.1889 152.212 71.1907C154 73 154 73 156 76C135.308 72.4817 113.33 56.5456 98.4766 42.2578C90.6808 35.1506 82.8615 29.8893 72.125 30.0625C64.7311 31.3288 57.8747 34.9474 53.3047 40.9375C42.8716 57.4305 42.0459 76.359 46 95C47.485 94.505 47.485 94.505 49 94C48.9768 93.1518 48.9536 92.3036 48.9297 91.4297C48.6465 73.0203 52.2388 57.2083 61 41C62.2895 44.8683 61.4817 46.9787 60.5625 50.9375C57.7554 64.1001 58.7336 77.2006 63 90C64.32 90 65.64 90 67 90C67.0864 89.2846 67.1728 88.5691 67.2617 87.832C68.6711 77.8371 71.5843 68.5735 77 60C78.2065 63.6194 78.0225 66.8679 77.9375 70.625C77.8738 76.7088 78.0555 82.1665 80 88C80.99 88.33 81.98 88.66 83 89C83.1096 88.2755 83.2192 87.5511 83.3321 86.8047C84.2287 81.3371 85.1596 76.7771 88 72C90.4952 74.4952 90.9578 76.5786 92 79.9375C93.0841 83.4226 93.9648 85.9472 96 89C98.43 89.8748 98.43 89.8748 101.32 90.3945C102.406 90.6247 103.491 90.8549 104.61 91.092C105.77 91.3298 106.93 91.5675 108.125 91.8125C121.906 94.8139 134.932 98.4237 147 106C147 106.33 147 106.66 147 107C140.966 106.593 135.02 106.066 129.063 105C109.565 101.567 88.6203 101.517 69.125 104.812C68.0799 104.958 67.0348 105.104 65.958 105.254C61.5974 106.108 58.9063 106.718 56.2725 110.443C54.9591 113.261 53.927 116.034 53 119C52.5669 120.217 52.1338 121.434 51.6875 122.687C51.4606 123.451 51.2338 124.214 51 125C51.6986 124.984 52.3972 124.969 53.117 124.952C80.6491 124.417 110.92 126.901 132 147C128.082 148.306 125.722 147.066 122 145.75C106.299 140.555 90.6 139.54 74.1524 139.719C71.2108 139.75 68.2698 139.76 65.3282 139.766C63.4323 139.775 61.5365 139.785 59.6407 139.797C58.3406 139.803 58.3406 139.803 57.0142 139.81C52.2538 139.866 47.7114 140.236 43 141C41.1068 141.13 39.2099 141.218 37.3125 141.25C35.9455 141.289 35.9455 141.289 34.5508 141.328C31.4965 140.935 30.1649 140.17 28 138C26.8271 129.789 30.2425 122.466 33.8828 115.23C37.6913 107.508 37.6913 107.508 36.7071 99.2851C35.3362 96.8535 33.7764 94.5697 32.1914 92.2734C24.9542 81.4627 25.384 65.1872 27.6914 52.7305C29.5662 44.9881 32.3213 38.4465 37 32C37.4396 31.3671 37.8792 30.7341 38.3321 30.082C53.06 10.8551 82.9254 7.36289 102.125 21.0625Z" fill="#4D4339"/>
</g>
<defs>
<clipPath id="clip0_152_149">
<rect width="221" height="247" fill="white"/>
</clipPath>
</defs>
</svg>
