<svg width="25" height="25" viewBox="0 0 25 25" fill="none" xmlns="http://www.w3.org/2000/svg">
<g clip-path="url(#clip0_30_478)">
<path d="M12.54 2.60845C7.08005 2.60845 2.63005 7.05845 2.63005 12.5185C2.63005 14.2685 3.09005 15.9685 3.95005 17.4685L2.55005 22.6085L7.80005 21.2285C9.25005 22.0185 10.88 22.4385 12.54 22.4385C18 22.4385 22.4501 17.9885 22.4501 12.5285C22.4501 9.87845 21.42 7.38845 19.55 5.51845C18.6331 4.59256 17.5411 3.85842 16.3376 3.35881C15.134 2.85921 13.8431 2.60414 12.54 2.60845ZM12.55 4.27845C14.75 4.27845 16.81 5.13845 18.37 6.69845C19.1354 7.46397 19.7423 8.37296 20.1558 9.37337C20.5694 10.3738 20.7815 11.4459 20.7801 12.5285C20.7801 17.0685 17.08 20.7585 12.54 20.7585C11.06 20.7585 9.61005 20.3685 8.35005 19.6085L8.05005 19.4385L4.93005 20.2585L5.76005 17.2185L5.56005 16.8985C4.7346 15.5869 4.29772 14.0682 4.30005 12.5185C4.31005 7.97845 8.00005 4.27845 12.55 4.27845ZM9.03005 7.93845C8.87005 7.93845 8.60005 7.99845 8.37005 8.24845C8.15005 8.49845 7.50005 9.10845 7.50005 10.3185C7.50005 11.5385 8.39005 12.7085 8.50005 12.8785C8.64005 13.0485 10.26 15.5485 12.75 16.6085C13.34 16.8785 13.8 17.0285 14.16 17.1385C14.75 17.3285 15.29 17.2985 15.72 17.2385C16.2 17.1685 17.18 16.6385 17.39 16.0585C17.6 15.4785 17.6 14.9885 17.54 14.8785C17.47 14.7785 17.31 14.7185 17.06 14.6085C16.81 14.4685 15.59 13.8685 15.37 13.7885C15.14 13.7085 15 13.6685 14.81 13.9085C14.65 14.1585 14.17 14.7185 14.03 14.8785C13.88 15.0485 13.74 15.0685 13.5 14.9485C13.24 14.8185 12.44 14.5585 11.5 13.7185C10.76 13.0585 10.27 12.2485 10.12 11.9985C10 11.7585 10.11 11.6085 10.23 11.4985C10.34 11.3885 10.5 11.2085 10.6 11.0585C10.73 10.9185 10.77 10.8085 10.85 10.6485C10.93 10.4785 10.89 10.3385 10.83 10.2185C10.77 10.1085 10.27 8.86845 10.06 8.37845C9.86005 7.89845 9.66005 7.95845 9.50005 7.94845C9.36005 7.94845 9.20005 7.93845 9.03005 7.93845Z" fill="white"/>
</g>
<defs>
<clipPath id="clip0_30_478">
<rect width="24" height="24" fill="white" transform="translate(0.5 0.608398)"/>
</clipPath>
</defs>
</svg>
