<svg width="85" height="84" viewBox="0 0 85 84" fill="none" xmlns="http://www.w3.org/2000/svg">
<g clip-path="url(#clip0_36_330)">
<path d="M79 31.5C75.15 31.5 72 34.65 72 38.5V52.5H23V38.5C23 34.65 19.85 31.5 16 31.5C12.15 31.5 9 34.65 9 38.5V56C9 61.775 13.725 66.5 19.5 66.5V70C19.5 71.925 21.075 73.5 23 73.5C24.925 73.5 26.5 71.925 26.5 70V66.5H68.5V70C68.5 71.925 70.075 73.5 72 73.5C73.925 73.5 75.5 71.925 75.5 70V66.5C81.275 66.5 86 61.775 86 56V38.5C86 34.65 82.85 31.5 79 31.5Z" fill="#EA6D27"/>
<path d="M30 38.5V45.5H65V38.5C65 31.99 69.48 26.565 75.5 24.99V21C75.5 15.225 70.775 10.5 65 10.5H30C24.225 10.5 19.5 15.225 19.5 21V24.99C25.52 26.565 30 31.99 30 38.5Z" fill="#EA6D27"/>
</g>
<defs>
<clipPath id="clip0_36_330">
<rect width="84" height="84" fill="white" transform="translate(0.5)"/>
</clipPath>
</defs>
</svg>
