<svg width="85" height="84" viewBox="0 0 85 84" fill="none" xmlns="http://www.w3.org/2000/svg">
<path d="M72 66.507V73.5C71.9998 74.3573 71.6851 75.1847 71.1154 75.8253C70.5458 76.4659 69.7608 76.8752 68.9095 76.9755L68.5 77H26.5C25.5717 77 24.6815 76.6313 24.0251 75.9749C23.3687 75.3185 23 74.4283 23 73.5V66.521C23 65.5927 23.3687 64.7025 24.0251 64.0461C24.6815 63.3897 25.5717 63.021 26.5 63.021L68.5 63.007C69.4282 63.007 70.3185 63.3757 70.9748 64.0321C71.6312 64.6885 72 65.5787 72 66.507ZM47.5 7C50.8325 6.99937 54.0958 7.95027 56.9064 9.74089C59.717 11.5315 61.9578 14.0874 63.3655 17.108L63.5755 17.5875L64.0515 17.556C67.8956 17.3821 71.6898 18.4801 74.847 20.68C78.0042 22.8799 80.3483 26.0591 81.5165 29.7255L81.737 30.471C82.812 34.4393 82.4556 38.6594 80.7301 42.3911C79.0047 46.1229 76.0206 49.128 72.301 50.8795L71.9965 51.009V56.007C71.9965 56.9353 71.6277 57.8255 70.9713 58.4819C70.3149 59.1382 69.4247 59.507 68.4965 59.507L26.4965 59.521C25.6392 59.5209 24.8118 59.2062 24.1712 58.6365C23.5305 58.0668 23.1213 57.2819 23.021 56.4305L22.9965 56.021V51.0055L22.566 50.813C20.4122 49.7765 18.4937 48.3098 16.9286 46.5033C15.3635 44.6968 14.1851 42.5889 13.466 40.3095L13.242 39.529C12.5267 36.8348 12.4653 34.0087 13.0631 31.286C13.6608 28.5633 14.9003 26.0227 16.6784 23.8759C18.4564 21.7291 20.7216 20.038 23.2854 18.9436C25.8491 17.8492 28.6372 17.3831 31.4175 17.584L31.6485 17.087C33.0008 14.1947 35.1187 11.7275 37.7728 9.95258C40.4268 8.17766 43.5159 7.16266 46.7055 7.0175L47.5 7Z" fill="#EA6D27"/>
</svg>
