<svg width="85" height="84" viewBox="0 0 85 84" fill="none" xmlns="http://www.w3.org/2000/svg">
<path d="M68.338 33.4668C65.7241 29.3713 62.2079 25.9282 58.0585 23.4008C61.415 22.7008 62.1045 22.1338 62.465 21.6508C62.5885 21.4943 62.6789 21.3143 62.7306 21.1217C62.7824 20.9292 62.7944 20.7281 62.766 20.5308C62.4615 18.4553 59.581 17.6118 52.819 17.6118C49.844 17.6118 46.9005 17.7903 45.2275 17.9163L45.875 8.4873C45.8863 8.32898 45.8657 8.17001 45.8147 8.01974C45.7636 7.86947 45.6829 7.73094 45.5775 7.6123C45.4718 7.49322 45.3434 7.39656 45.1997 7.32802C45.056 7.25948 44.9 7.22048 44.741 7.2133L40.233 6.9998C40.0767 6.9913 39.9202 7.01374 39.7726 7.06581C39.6249 7.11789 39.489 7.19859 39.3726 7.30328C39.2562 7.40797 39.1616 7.53461 39.0943 7.67592C39.0269 7.81723 38.988 7.97045 38.98 8.1268L38.413 18.0633C35.9957 17.9261 33.5751 17.8549 31.154 17.8498C23.013 17.8498 21.375 18.8998 20.815 20.0443C20.7127 20.2486 20.6595 20.4739 20.6595 20.7023C20.6595 20.9307 20.7127 21.156 20.815 21.3603C21.0915 21.9203 21.6655 22.5468 24.8085 23.4918C20.1775 26.3399 16.3537 30.3273 13.7018 35.0734C11.05 39.8196 9.6586 45.1661 9.66049 50.6028C9.52594 54.4354 10.3141 58.2443 11.9586 61.7088C13.6032 65.1733 16.0559 68.192 19.1105 70.5108C25.6717 75.0462 33.5304 77.3238 41.5 76.9998C49.4751 77.321 57.338 75.0371 63.9 70.4933C66.9545 68.1745 69.4073 65.1558 71.0518 61.6913C72.6964 58.2268 73.4845 54.4179 73.35 50.5853C73.3497 44.5174 71.6104 38.5767 68.338 33.4668ZM42.039 24.6188C41.8356 24.4708 41.5905 24.3911 41.339 24.3911C41.0875 24.3911 40.8424 24.4708 40.639 24.6188C36.8515 27.371 32.9176 29.9157 28.8545 32.2418C30.2413 29.658 31.7976 27.1687 33.513 24.7903C33.6295 24.6266 33.7026 24.4362 33.7257 24.2366C33.7487 24.037 33.7208 23.8349 33.6446 23.649C33.5685 23.4631 33.4465 23.2996 33.29 23.1736C33.1336 23.0475 32.9478 22.9632 32.75 22.9283C29.8126 22.3793 26.9133 21.6428 24.07 20.7233C26.4037 20.3177 28.7725 20.15 31.14 20.2228C35.3085 20.2228 39.393 20.5203 39.435 20.5238C39.5928 20.536 39.7515 20.5166 39.9018 20.4667C40.052 20.4168 40.1908 20.3375 40.31 20.2333C40.5484 20.0204 40.6941 19.7227 40.716 19.4038L41.297 9.4498L43.397 9.5513L42.7495 19.1448C42.7362 19.3172 42.7606 19.4904 42.821 19.6524C42.8815 19.8144 42.9765 19.9613 43.0995 20.0828C43.2234 20.2036 43.3721 20.2959 43.5353 20.3533C43.6985 20.4108 43.8723 20.4319 44.0445 20.4153C44.0865 20.4153 48.486 20.0093 52.812 20.0093C55.0559 19.92 57.3021 20.1152 59.497 20.5903C56.7077 21.2875 53.8761 21.8031 51.02 22.1338C50.815 22.1578 50.6198 22.2348 50.4535 22.3571C50.2873 22.4793 50.1557 22.6428 50.0717 22.8313C49.9876 23.0198 49.9541 23.2269 49.9743 23.4323C49.9945 23.6377 50.0678 23.8343 50.187 24.0028C52.1123 26.5764 53.674 29.403 54.828 32.4028C50.3027 30.2658 46.016 27.6566 42.039 24.6188Z" fill="#EA6D27"/>
</svg>
