<svg width="85" height="84" viewBox="0 0 85 84" fill="none" xmlns="http://www.w3.org/2000/svg">
<path d="M32.625 8.75C32.625 8.05381 32.3484 7.38613 31.8561 6.89384C31.3639 6.40156 30.6962 6.125 30 6.125C29.3038 6.125 28.6361 6.40156 28.1438 6.89384C27.6516 7.38613 27.375 8.05381 27.375 8.75V14.28C22.335 14.6825 19.031 15.6695 16.602 18.102C14.1695 20.531 13.1825 23.8385 12.7765 28.875H82.2235C81.8175 23.835 80.8305 20.531 78.398 18.102C75.969 15.6695 72.6615 14.6825 67.625 14.2765V8.75C67.625 8.05381 67.3484 7.38613 66.8561 6.89384C66.3639 6.40156 65.6962 6.125 65 6.125C64.3038 6.125 63.6361 6.40156 63.1438 6.89384C62.6515 7.38613 62.375 8.05381 62.375 8.75V14.0455C60.0475 14 57.4365 14 54.5 14H40.5C37.5635 14 34.9525 14 32.625 14.0455V8.75Z" fill="#EA6D27"/>
<path fill-rule="evenodd" clip-rule="evenodd" d="M12.5 42C12.5 39.0635 12.5 36.4525 12.5455 34.125H82.4545C82.5 36.4525 82.5 39.0635 82.5 42V49C82.5 62.1985 82.5 68.7995 78.398 72.898C74.296 76.9965 67.6985 77 54.5 77H40.5C27.3015 77 20.7005 77 16.602 72.898C12.5035 68.796 12.5 62.1985 12.5 49V42ZM65 49C65.9283 49 66.8185 48.6313 67.4749 47.9749C68.1313 47.3185 68.5 46.4283 68.5 45.5C68.5 44.5717 68.1313 43.6815 67.4749 43.0251C66.8185 42.3687 65.9283 42 65 42C64.0717 42 63.1815 42.3687 62.5251 43.0251C61.8687 43.6815 61.5 44.5717 61.5 45.5C61.5 46.4283 61.8687 47.3185 62.5251 47.9749C63.1815 48.6313 64.0717 49 65 49ZM65 63C65.9283 63 66.8185 62.6313 67.4749 61.9749C68.1313 61.3185 68.5 60.4283 68.5 59.5C68.5 58.5717 68.1313 57.6815 67.4749 57.0251C66.8185 56.3687 65.9283 56 65 56C64.0717 56 63.1815 56.3687 62.5251 57.0251C61.8687 57.6815 61.5 58.5717 61.5 59.5C61.5 60.4283 61.8687 61.3185 62.5251 61.9749C63.1815 62.6313 64.0717 63 65 63ZM51 45.5C51 46.4283 50.6312 47.3185 49.9749 47.9749C49.3185 48.6313 48.4283 49 47.5 49C46.5717 49 45.6815 48.6313 45.0251 47.9749C44.3687 47.3185 44 46.4283 44 45.5C44 44.5717 44.3687 43.6815 45.0251 43.0251C45.6815 42.3687 46.5717 42 47.5 42C48.4283 42 49.3185 42.3687 49.9749 43.0251C50.6312 43.6815 51 44.5717 51 45.5ZM51 59.5C51 60.4283 50.6312 61.3185 49.9749 61.9749C49.3185 62.6313 48.4283 63 47.5 63C46.5717 63 45.6815 62.6313 45.0251 61.9749C44.3687 61.3185 44 60.4283 44 59.5C44 58.5717 44.3687 57.6815 45.0251 57.0251C45.6815 56.3687 46.5717 56 47.5 56C48.4283 56 49.3185 56.3687 49.9749 57.0251C50.6312 57.6815 51 58.5717 51 59.5ZM30 49C30.9283 49 31.8185 48.6313 32.4749 47.9749C33.1313 47.3185 33.5 46.4283 33.5 45.5C33.5 44.5717 33.1313 43.6815 32.4749 43.0251C31.8185 42.3687 30.9283 42 30 42C29.0717 42 28.1815 42.3687 27.5251 43.0251C26.8687 43.6815 26.5 44.5717 26.5 45.5C26.5 46.4283 26.8687 47.3185 27.5251 47.9749C28.1815 48.6313 29.0717 49 30 49ZM30 63C30.9283 63 31.8185 62.6313 32.4749 61.9749C33.1313 61.3185 33.5 60.4283 33.5 59.5C33.5 58.5717 33.1313 57.6815 32.4749 57.0251C31.8185 56.3687 30.9283 56 30 56C29.0717 56 28.1815 56.3687 27.5251 57.0251C26.8687 57.6815 26.5 58.5717 26.5 59.5C26.5 60.4283 26.8687 61.3185 27.5251 61.9749C28.1815 62.6313 29.0717 63 30 63Z" fill="#EA6D27"/>
</svg>
