<svg width="25" height="25" viewBox="0 0 25 25" fill="none" xmlns="http://www.w3.org/2000/svg">
<path d="M12.501 9.6084C11.7054 9.6084 10.9423 9.92447 10.3797 10.4871C9.81707 11.0497 9.501 11.8127 9.501 12.6084C9.501 13.404 9.81707 14.1671 10.3797 14.7297C10.9423 15.2923 11.7054 15.6084 12.501 15.6084C13.2966 15.6084 14.0597 15.2923 14.6223 14.7297C15.1849 14.1671 15.501 13.404 15.501 12.6084C15.501 11.8127 15.1849 11.0497 14.6223 10.4871C14.0597 9.92447 13.2966 9.6084 12.501 9.6084ZM12.501 7.6084C13.8271 7.6084 15.0989 8.13518 16.0365 9.07286C16.9742 10.0105 17.501 11.2823 17.501 12.6084C17.501 13.9345 16.9742 15.2063 16.0365 16.1439C15.0989 17.0816 13.8271 17.6084 12.501 17.6084C11.1749 17.6084 9.90315 17.0816 8.96547 16.1439C8.02778 15.2063 7.501 13.9345 7.501 12.6084C7.501 11.2823 8.02778 10.0105 8.96547 9.07286C9.90315 8.13518 11.1749 7.6084 12.501 7.6084ZM19.001 7.3584C19.001 7.68992 18.8693 8.00786 18.6349 8.24228C18.4005 8.4767 18.0825 8.6084 17.751 8.6084C17.4195 8.6084 17.1015 8.4767 16.8671 8.24228C16.6327 8.00786 16.501 7.68992 16.501 7.3584C16.501 7.02688 16.6327 6.70894 16.8671 6.47451C17.1015 6.24009 17.4195 6.1084 17.751 6.1084C18.0825 6.1084 18.4005 6.24009 18.6349 6.47451C18.8693 6.70894 19.001 7.02688 19.001 7.3584ZM12.501 4.6084C10.027 4.6084 9.623 4.6154 8.472 4.6664C7.688 4.7034 7.162 4.8084 6.674 4.9984C6.26583 5.14877 5.89672 5.38903 5.594 5.7014C5.28127 6.00402 5.04066 6.37314 4.89 6.7814C4.7 7.2714 4.595 7.7964 4.559 8.5794C4.507 9.6834 4.5 10.0694 4.5 12.6084C4.5 15.0834 4.507 15.4864 4.558 16.6374C4.595 17.4204 4.7 17.9474 4.889 18.4344C5.059 18.8694 5.259 19.1824 5.591 19.5144C5.928 19.8504 6.241 20.0514 6.671 20.2174C7.165 20.4084 7.691 20.5144 8.471 20.5504C9.575 20.6024 9.961 20.6084 12.5 20.6084C14.975 20.6084 15.378 20.6014 16.529 20.5504C17.311 20.5134 17.837 20.4084 18.326 20.2194C18.7342 20.069 19.1033 19.8288 19.406 19.5164C19.743 19.1804 19.944 18.8674 20.11 18.4364C20.3 17.9444 20.406 17.4184 20.442 16.6364C20.494 15.5334 20.5 15.1464 20.5 12.6084C20.5 10.1344 20.493 9.7304 20.442 8.5794C20.405 7.7974 20.299 7.2694 20.11 6.7814C19.9596 6.37323 19.7194 6.00412 19.407 5.7014C19.1044 5.38867 18.7353 5.14806 18.327 4.9974C17.837 4.8074 17.311 4.7024 16.529 4.6664C15.426 4.6144 15.04 4.6084 12.5 4.6084M12.5 2.6084C15.217 2.6084 15.556 2.6184 16.623 2.6684C17.687 2.7184 18.413 2.8854 19.05 3.1334C19.71 3.3874 20.266 3.7314 20.822 4.2864C21.3307 4.78613 21.7242 5.39087 21.975 6.0584C22.222 6.6954 22.39 7.4214 22.44 8.4864C22.487 9.5524 22.5 9.8914 22.5 12.6084C22.5 15.3254 22.49 15.6644 22.44 16.7304C22.39 17.7964 22.222 18.5204 21.975 19.1584C21.7242 19.8259 21.3307 20.4307 20.822 20.9304C20.3223 21.4391 19.7175 21.8326 19.05 22.0834C18.413 22.3304 17.687 22.4984 16.623 22.5484C15.556 22.5954 15.217 22.6084 12.5 22.6084C9.783 22.6084 9.444 22.5984 8.377 22.5484C7.313 22.4984 6.588 22.3304 5.95 22.0834C5.28247 21.8326 4.67773 21.4391 4.178 20.9304C3.66931 20.4307 3.27582 19.8259 3.025 19.1584C2.777 18.5214 2.61 17.7954 2.56 16.7304C2.512 15.6644 2.5 15.3254 2.5 12.6084C2.5 9.8914 2.51 9.5524 2.56 8.4864C2.61 7.4204 2.777 6.6964 3.025 6.0584C3.27582 5.39087 3.66931 4.78613 4.178 4.2864C4.67773 3.7777 5.28247 3.38421 5.95 3.1334C6.587 2.8854 7.312 2.7184 8.377 2.6684C9.445 2.6214 9.784 2.6084 12.501 2.6084" fill="white"/>
</svg>
