<svg width="18" height="17" viewBox="0 0 18 17" fill="none" xmlns="http://www.w3.org/2000/svg">
<path d="M8.56088 14.0234L4.41088 16.5234C4.22754 16.64 4.03588 16.69 3.83588 16.6734C3.63588 16.6567 3.46088 16.59 3.31088 16.4734C3.16088 16.3567 3.04421 16.211 2.96088 16.0364C2.87754 15.8617 2.86088 15.6657 2.91088 15.4484L4.01088 10.7234L0.335876 7.54836C0.169209 7.39836 0.0652091 7.22736 0.0238758 7.03536C-0.0174575 6.84336 -0.00512426 6.65603 0.0608757 6.47336C0.126876 6.2907 0.226876 6.1407 0.360876 6.02336C0.494876 5.90603 0.678209 5.83103 0.910876 5.79836L5.76088 5.37336L7.63588 0.923364C7.71921 0.723364 7.84854 0.573364 8.02388 0.473364C8.19921 0.373364 8.37821 0.323364 8.56088 0.323364C8.74354 0.323364 8.92254 0.373364 9.09788 0.473364C9.27321 0.573364 9.40254 0.723364 9.48588 0.923364L11.3609 5.37336L16.2109 5.79836C16.4442 5.8317 16.6275 5.9067 16.7609 6.02336C16.8942 6.14003 16.9942 6.29003 17.0609 6.47336C17.1275 6.6567 17.1402 6.84436 17.0989 7.03636C17.0575 7.22836 16.9532 7.39903 16.7859 7.54836L13.1109 10.7234L14.2109 15.4484C14.2609 15.665 14.2442 15.861 14.1609 16.0364C14.0775 16.2117 13.9609 16.3574 13.8109 16.4734C13.6609 16.5894 13.4859 16.656 13.2859 16.6734C13.0859 16.6907 12.8942 16.6407 12.7109 16.5234L8.56088 14.0234Z" fill="#EA6D27"/>
</svg>
